<svg xmlns:xlink="http://www.w3.org/1999/xlink" xmlns="http://www.w3.org/2000/svg" width="256" height="256" viewBox="0 0 256 256" fill="none" data-google-analytics-opt-out="">
<g clip-path="url(#clip0_316_1013)">
<path opacity="0.2" d="M128 224C181.019 224 224 181.019 224 128C224 74.9807 181.019 32 128 32C74.9807 32 32 74.9807 32 128C32 181.019 74.9807 224 128 224Z" fill="#006D87"/>
<path d="M172 104L113.3 160L84 132" stroke="#006D87" stroke-width="16" stroke-linecap="round" stroke-linejoin="round"/>
<path d="M128 224C181.019 224 224 181.019 224 128C224 74.9807 181.019 32 128 32C74.9807 32 32 74.9807 32 128C32 181.019 74.9807 224 128 224Z" stroke="#006D87" stroke-width="16" stroke-linecap="round" stroke-linejoin="round"/>
</g>
<defs>
<clipPath id="clip0_316_1013">
<rect width="256" height="256" fill="white"/>
</clipPath>
</defs>
</svg>