<svg xmlns:xlink="http://www.w3.org/1999/xlink" xmlns="http://www.w3.org/2000/svg" width="222" height="65" viewBox="0 0 222 65" fill="none" data-google-analytics-opt-out="">
<g clip-path="url(#clip0_3_2955)">
<path d="M64.5627 -0.00438215C56.4234 0.0190378 48.2841 0.0244409 40.1447 0.0118269C40.0959 0.930187 39.945 1.84039 39.6948 2.72587C39.1342 4.37568 38.0051 5.77636 36.5063 6.68135C35.0074 7.58635 33.2349 7.93763 31.5007 7.67338C29.7666 7.40912 28.1819 6.54626 27.0257 5.23668C25.8696 3.92711 25.216 2.25478 25.18 0.514065C25.1759 0.346631 25.1708 0.179241 25.1662 0.0118269H0.15969C-0.1058 0.151563 0.0406903 0.394331 0.0406203 0.578697C0.0322903 21.9289 0.0296707 43.2792 0.0327807 64.6294H57.0907C59.6083 64.6294 62.1259 64.6328 64.6434 64.6215C64.8081 64.6208 65.0369 64.7638 65.1512 64.5034C65.1512 43.2102 65.1552 21.9169 65.1633 0.623686C65.1636 0.142437 65.1074 -0.00595715 64.5627 -0.00438215Z" fill="#654FEF"/>
<path d="M15.3018 32.8857C14.8187 33.4255 14.1796 33.8044 13.4716 33.9707C13.0245 34.072 12.5614 34.0836 12.1097 34.0048C11.658 33.9259 11.2268 33.7582 10.8414 33.5115C10.4559 33.2648 10.1242 32.944 9.86548 32.5682C9.60688 32.1923 9.42658 31.7689 9.33528 31.3229C9.24398 30.8769 9.24358 30.4172 9.33388 29.971C9.42428 29.5248 9.60368 29.1011 9.86158 28.7247C10.1195 28.3483 10.4506 28.0269 10.8356 27.7795C11.2205 27.532 11.6514 27.3634 12.1029 27.2836C12.9373 27.1313 13.799 27.2926 14.5201 27.7361C15.2412 28.1796 15.7702 28.8736 16.004 29.6829C16.0774 29.9247 16.1411 29.8365 16.2637 29.7483C18.7219 27.9795 21.1811 26.2121 23.6413 24.446C25.0093 23.4649 26.3847 22.4939 27.7519 21.5116C28.9138 20.6768 30.0687 19.8324 31.2262 18.9915C31.2464 18.973 31.2645 18.9523 31.28 18.9298C30.5563 18.549 29.9911 17.9271 29.6838 17.1736C29.3766 16.4201 29.347 15.5831 29.6003 14.8101C29.8339 14.1161 30.2859 13.5148 30.8896 13.0946C31.4933 12.6745 32.217 12.4578 32.9541 12.4762C33.6913 12.4947 34.403 12.7475 34.9845 13.1973C35.5661 13.6471 35.9869 14.2703 36.1849 14.9752C36.3927 15.7393 36.3295 16.5511 36.0057 17.2745C35.682 17.9978 35.1175 18.5887 34.4069 18.9481L49.0807 29.9077C49.2158 29.3014 49.5152 28.7433 49.9467 28.2936C50.3782 27.844 50.9254 27.5199 51.529 27.3564C51.9817 27.2209 52.4585 27.184 52.9269 27.2482C53.3953 27.3125 53.8442 27.4763 54.2429 27.7285C54.6629 27.9833 55.023 28.3245 55.2989 28.7291C55.5748 29.1337 55.7602 29.5922 55.8425 30.0739C55.9248 30.5555 55.9021 31.0491 55.776 31.5213C55.6499 31.9935 55.4232 32.4335 55.1114 32.8114C54.7995 33.1894 54.4096 33.4967 53.968 33.7126C53.5264 33.9284 53.0432 34.0479 52.5512 34.0628C52.0591 34.0778 51.5695 33.9879 51.1154 33.7993C50.6613 33.6107 50.2532 33.3277 49.9186 32.9694C49.8169 33.0421 49.8093 33.1639 49.775 33.2651C49.1895 34.9937 48.607 36.7235 48.0276 38.4542C46.8167 42.0931 45.6074 45.7325 44.3998 49.3724C44.3252 49.5963 44.3441 49.642 44.598 49.6171C45.4853 49.5005 46.3831 49.7372 47.0951 50.2754C47.8071 50.8135 48.2756 51.6095 48.3981 52.4893C48.4787 52.9649 48.452 53.4523 48.3201 53.9164C48.1881 54.3805 47.9541 54.8099 47.635 55.1735C47.125 55.7852 46.4157 56.2008 45.6296 56.3485C44.8436 56.4962 44.0302 56.3667 43.3302 55.9824C42.6302 55.5982 42.0875 54.9832 41.7959 54.244C41.5043 53.5047 41.4821 52.6876 41.7333 51.9338C41.7686 51.8254 41.8086 51.7184 41.8608 51.5698L23.582 51.3532C23.8729 51.8986 24.0114 52.5114 23.9832 53.1279C23.955 53.7444 23.761 54.3421 23.4215 54.8592C23.1703 55.257 22.8362 55.597 22.4418 55.8563C22.0473 56.1156 21.6016 56.2882 21.1344 56.3627C20.6463 56.4463 20.1458 56.4247 19.6668 56.2994C19.1878 56.1741 18.7416 55.948 18.3585 55.6364C17.9753 55.3249 17.6642 54.9352 17.4462 54.4938C17.2282 54.0524 17.1085 53.5697 17.0951 53.0783C17.0817 52.5869 17.175 52.0985 17.3687 51.646C17.5623 51.1936 17.8518 50.7878 18.2174 50.4562C18.583 50.1246 19.0163 49.8749 19.4877 49.7241C19.9592 49.5733 20.4578 49.5249 20.9498 49.5823C19.0693 44.0232 17.193 38.4765 15.3018 32.8857ZM16.7964 31.0101C18.2547 31.5978 19.6643 32.1638 21.072 32.7346C21.1659 32.7574 21.2537 32.7999 21.3296 32.8593C21.4055 32.9187 21.4677 32.9935 21.512 33.0788C21.5562 33.164 21.5816 33.2577 21.5862 33.3535C21.5909 33.4493 21.5748 33.545 21.5391 33.6341C21.5033 33.7232 21.4487 33.8037 21.3789 33.87C21.3092 33.9364 21.2259 33.9872 21.1347 34.0189C21.0435 34.0506 20.9465 34.0625 20.8502 34.0539C20.754 34.0452 20.6607 34.0162 20.5767 33.9687C19.7593 33.6406 18.9444 33.3065 18.1278 32.9766C17.6122 32.7683 17.0953 32.5632 16.5252 32.3351C18.453 38.0338 20.3609 43.6732 22.2824 49.3531C22.4142 49.2013 22.5148 49.0862 22.6145 48.9704C23.9452 47.4256 25.2761 45.8809 26.6071 44.3362C26.6581 44.2533 26.7267 44.1824 26.808 44.1283C26.8893 44.0741 26.9814 44.0381 27.0781 44.0227C27.1748 44.0073 27.2737 44.0129 27.368 44.039C27.4623 44.0651 27.5498 44.1112 27.6244 44.174C27.6976 44.2376 27.7564 44.3159 27.7967 44.4037C27.8371 44.4915 27.8582 44.5869 27.8586 44.6834C27.8589 44.7799 27.8386 44.8754 27.799 44.9636C27.7593 45.0517 27.7012 45.1305 27.6285 45.1946C26.5049 46.4969 25.3813 47.7991 24.2576 49.1013C24.004 49.3956 23.7536 49.6926 23.4686 50.0273L41.8999 50.2449C41.7827 50.0735 41.7023 49.9543 41.6203 49.8362C40.5302 48.2673 39.4402 46.6983 38.3505 45.1291C38.2888 45.0578 38.2427 44.9746 38.215 44.8847C38.1873 44.7949 38.1787 44.7003 38.1895 44.607C38.2004 44.5137 38.2306 44.4236 38.2783 44.3424C38.3259 44.2612 38.39 44.1906 38.4664 44.1352C38.5465 44.0797 38.6377 44.0421 38.7339 44.0249C38.83 44.0076 38.9288 44.0112 39.0234 44.0354C39.118 44.0595 39.2062 44.1037 39.282 44.1648C39.3578 44.2259 39.4194 44.3026 39.4626 44.3896C40.3036 45.6033 41.146 46.8161 41.9896 48.0281C42.3066 48.4842 42.6244 48.9398 42.9754 49.4437C44.8817 43.7314 46.7682 38.0783 48.6724 32.3722C48.1136 32.5887 47.6113 32.7822 47.1098 32.9779C46.2441 33.3157 45.3788 33.6545 44.5138 33.9941C44.3938 34.049 44.26 34.0674 44.1294 34.0471C43.9988 34.0267 43.8772 33.9684 43.78 33.8796C43.6914 33.803 43.6261 33.7033 43.5916 33.5918C43.5571 33.4804 43.5548 33.3615 43.5848 33.2488C43.6172 33.1223 43.6833 33.0067 43.7763 32.9142C43.8692 32.8217 43.9854 32.7558 44.1129 32.7233C44.9509 32.396 45.7889 32.0689 46.627 31.742C47.2008 31.518 47.7745 31.294 48.3905 31.0534L33.5321 19.9562C33.5321 21.4417 33.5324 22.8474 33.532 24.2531C33.5318 24.7059 33.5395 25.159 33.525 25.6114C33.5178 25.7596 33.4602 25.901 33.3617 26.0126C33.2631 26.1242 33.1294 26.1993 32.9823 26.2259C32.8351 26.2524 32.6833 26.2287 32.5515 26.1586C32.4197 26.0886 32.3156 25.9763 32.2563 25.8401C32.2007 25.6753 32.1805 25.5007 32.1972 25.3277C32.1957 23.6125 32.1995 21.8973 32.1989 20.182C32.1989 20.1149 32.2491 20.0274 32.131 19.9703L16.7964 31.0101ZM54.551 30.6617C54.5556 30.3872 54.5051 30.1146 54.4025 29.8597C54.2999 29.6048 54.1473 29.3727 53.9535 29.1769C53.7596 28.9811 53.5285 28.8255 53.2735 28.7192C53.0185 28.6128 52.7448 28.5579 52.4682 28.5575C52.0525 28.5539 51.6452 28.6726 51.2976 28.8987C50.9499 29.1248 50.6777 29.4481 50.5152 29.8277C50.3527 30.2074 50.3074 30.6263 50.3848 31.0315C50.4623 31.4368 50.6591 31.8101 50.9503 32.1043C51.2416 32.3986 51.6142 32.6005 52.0211 32.6846C52.428 32.7687 52.8509 32.7311 53.2363 32.5767C53.6217 32.4223 53.9523 32.1579 54.1863 31.817C54.4203 31.4762 54.5472 31.0741 54.551 30.6617ZM14.8032 30.6439C14.8038 30.0929 14.5844 29.5641 14.193 29.1732C13.8016 28.7824 13.2701 28.5614 12.7148 28.5586C12.1595 28.5558 11.6258 28.7715 11.2304 29.1584C10.835 29.5453 10.6102 30.0719 10.6053 30.6229C10.6028 30.8971 10.6549 31.1691 10.7586 31.4233C10.8623 31.6774 11.0156 31.9088 11.2096 32.1041C11.4037 32.2993 11.6346 32.4546 11.8893 32.5611C12.1439 32.6675 12.4173 32.7231 12.6936 32.7245C12.9699 32.7258 13.2438 32.6731 13.4996 32.5692C13.7553 32.4652 13.9878 32.3122 14.1838 32.1189C14.3798 31.9256 14.5354 31.6958 14.6417 31.4427C14.748 31.1896 14.8029 30.9181 14.8032 30.6439ZM32.877 13.8018C32.6006 13.7986 32.3262 13.8499 32.0699 13.9529C31.8136 14.0559 31.5806 14.2085 31.3843 14.4018C31.188 14.595 31.0325 14.8251 30.9267 15.0786C30.8209 15.3321 30.767 15.604 30.7681 15.8784C30.7666 16.1546 30.8204 16.4284 30.9265 16.6838C31.0326 16.9392 31.1888 17.1712 31.386 17.3661C31.5833 17.5611 31.8176 17.7151 32.0754 17.8194C32.3332 17.9236 32.6093 17.9759 32.8877 17.9732C33.1661 17.9706 33.4411 17.913 33.6969 17.8038C33.9526 17.6947 34.1839 17.5362 34.3773 17.3375C34.5708 17.1388 34.7224 16.9039 34.8235 16.6465C34.9246 16.3891 34.9731 16.1143 34.9662 15.8382C34.9585 15.2941 34.7348 14.775 34.3436 14.3937C33.9524 14.0123 33.4254 13.7997 32.877 13.8018ZM47.0994 52.9583C47.0942 52.6837 47.0345 52.4129 46.9236 52.1613C46.8127 51.9097 46.6529 51.6822 46.4532 51.4921C46.2535 51.3019 46.018 51.1527 45.7601 51.0531C45.5022 50.9535 45.2271 50.9054 44.9504 50.9115C44.6737 50.9177 44.401 50.978 44.1479 51.089C43.8948 51.1999 43.6662 51.3594 43.4753 51.5583C43.2844 51.7571 43.135 51.9914 43.0356 52.2477C42.9362 52.504 42.8887 52.7772 42.896 53.0518C42.9169 53.6056 43.1555 54.1292 43.5607 54.5106C43.9658 54.892 44.5053 55.1008 45.0637 55.0924C45.617 55.072 46.1402 54.8371 46.5208 54.438C46.9015 54.039 47.1092 53.5077 47.0994 52.9583ZM20.5244 50.9068C19.9679 50.9146 19.4369 51.1404 19.0474 51.5349C18.6578 51.9294 18.4412 52.4608 18.4447 53.0131C18.4482 53.5655 18.6715 54.0941 19.0661 54.4837C19.4606 54.8733 19.9944 55.0924 20.551 55.0932C20.8285 55.0923 21.1031 55.037 21.359 54.9306C21.615 54.8241 21.8472 54.6686 22.0425 54.4729C22.2378 54.2772 22.3922 54.0452 22.497 53.7902C22.6017 53.5352 22.6548 53.2622 22.653 52.9868C22.6513 52.7114 22.5948 52.4391 22.4868 52.1854C22.3788 51.9317 22.2214 51.7017 22.0237 51.5085C21.8259 51.3153 21.5917 51.1627 21.3345 51.0594C21.0772 50.9562 20.8019 50.9043 20.5244 50.9068Z" fill="white"/>
<path d="M32.969 41.2961C31.0082 41.2961 29.0471 41.2753 27.0867 41.3036C25.8472 41.3907 24.6189 41.0209 23.6371 40.2652C22.9265 39.6957 22.4022 38.9297 22.1306 38.0642C21.859 37.1988 21.8524 36.2728 22.1115 35.4036C22.3505 34.5319 22.8477 33.7515 23.5386 33.1633C24.2296 32.5751 25.0826 32.2063 25.9872 32.1046C26.3056 32.0692 26.6268 32.0642 26.9462 32.0898C27.1123 32.0953 27.1906 32.067 27.2524 31.8881C27.64 30.7224 28.3978 29.7126 29.4123 29.01C30.4267 28.3075 31.6431 27.95 32.8795 27.991C33.944 28.0092 34.9796 28.3371 35.8581 28.934C35.9369 28.9953 36.0281 29.0388 36.1255 29.0617C36.2229 29.0846 36.3241 29.0862 36.4222 29.0665C37.3882 28.8991 38.3817 29.1159 39.1877 29.6701C39.9937 30.2243 40.5473 31.0713 40.7286 32.0276C40.7382 32.1333 40.778 32.234 40.8432 32.318C40.9084 32.4021 40.9964 32.4659 41.0969 32.5021C42.0008 32.9153 42.747 33.6057 43.2257 34.4716C43.7044 35.3374 43.8902 36.3329 43.7557 37.3114C43.6213 38.2899 43.1737 39.1997 42.4789 39.9068C41.784 40.6138 40.8788 41.0807 39.8964 41.2387C39.6765 41.2754 39.4539 41.2941 39.2309 41.2945C38.1824 41.2969 37.1339 41.2952 36.0853 41.2952C35.0466 41.2951 34.0078 41.296 32.969 41.2961ZM33.6591 39.9727C34.5526 39.9727 35.4461 39.9727 36.3395 39.9727C37.2426 39.9727 38.1457 39.9743 39.0488 39.971C39.2527 39.9774 39.4567 39.9666 39.6588 39.9387C40.403 39.821 41.0846 39.4554 41.5916 38.9021C42.0985 38.3487 42.4006 37.6407 42.4481 36.8943C42.4956 36.148 42.2857 35.4078 41.8529 34.7956C41.42 34.1834 40.7901 33.7357 40.0668 33.526C39.972 33.5132 39.8808 33.4816 39.7986 33.4332C39.7164 33.3848 39.6448 33.3205 39.5881 33.244C39.5314 33.1676 39.4908 33.0807 39.4686 32.9884C39.4464 32.8961 39.4431 32.8003 39.4589 32.7068C39.4586 32.3345 39.3702 31.9676 39.2008 31.6354C39.0314 31.3033 38.7858 31.0153 38.4837 30.7946C38.1816 30.5739 37.8316 30.4267 37.4617 30.3649C37.0918 30.303 36.7124 30.3283 36.3541 30.4385C36.1966 30.4954 36.0264 30.5082 35.862 30.4756C35.6976 30.443 35.5454 30.3663 35.4219 30.2539C34.9294 29.8579 34.3545 29.5756 33.7386 29.4272C33.1226 29.2788 32.4812 29.268 31.8606 29.3957C30.9967 29.5594 30.2023 29.977 29.5805 30.5944C28.9588 31.2118 28.5385 32.0004 28.3742 32.8578C28.2599 33.4336 27.9665 33.6188 27.4016 33.4893C26.8712 33.358 26.3167 33.3561 25.7855 33.4839C25.0154 33.6748 24.3391 34.1319 23.8782 34.7731C23.4172 35.4144 23.2018 36.1977 23.2706 36.9824C23.3438 37.8075 23.7294 38.5744 24.3496 39.1287C24.9699 39.683 25.7787 39.9835 26.6133 39.9696C27.1075 39.9703 27.6013 39.984 28.0959 39.9797C29.9502 39.9635 31.8047 39.9732 33.6591 39.9727Z" fill="white"/>
<path d="M79.2056 40.5883L76.8644 23.6216H79.6681C80.0631 27.2829 80.5901 32.912 80.7212 36.1157H80.7694C81.1616 32.5237 81.8758 27.3387 82.3611 23.6216H84.9263C85.4341 27.4637 86.1452 32.2557 86.4923 35.9981H86.5466C86.7483 32.6847 87.2485 27.4659 87.6436 23.6216H90.3091L87.7826 40.5883H85.0925C84.6104 36.7835 83.9401 32.2583 83.5745 28.7668H83.5263C83.129 32.332 82.3841 36.9309 81.8732 40.5883H79.2056Z" fill="#654FEF"/>
<path d="M98.0649 37.8962C98.0649 38.7241 98.0679 40.0877 98.1159 40.5879H95.7079C95.6529 40.3409 95.5599 39.8109 95.5379 39.624C95.3265 40.0079 95.0075 40.3226 94.6194 40.5298C94.2313 40.737 93.7909 40.8278 93.3517 40.791C91.3604 40.791 90.5566 38.9602 90.5566 36.9762V36.7476C90.5566 33.5083 92.756 32.6471 95.1434 32.6471H95.4474V30.9689C95.4474 29.9387 95.3236 29.3596 94.52 29.3596C93.739 29.3596 93.558 29.9642 93.558 30.7807V30.9952H90.966V30.8254C90.966 28.9226 91.7022 27.2378 94.6133 27.2378C97.1699 27.2378 98.0649 28.6378 98.0649 30.7614V37.8962ZM95.4959 34.6285H95.0566C93.8538 34.6285 93.0613 35.0804 93.0613 36.7191V36.9253C93.0613 37.8528 93.4001 38.5127 94.2232 38.5127C95.1054 38.5127 95.4959 37.9076 95.4959 36.1347V34.6285Z" fill="#654FEF"/>
<path d="M102.263 36.4729V37.0735C102.263 37.8839 102.494 38.5859 103.337 38.5859C104.054 38.5859 104.36 38.1533 104.36 37.2776C104.36 36.4286 104.118 35.8416 102.514 34.8153C100.692 33.6531 99.8149 32.7002 99.8149 30.8193C99.8149 28.5962 101.018 27.2378 103.324 27.2378C105.828 27.2378 106.824 28.6084 106.824 31.0176V31.5436H104.277V30.7328C104.277 29.8176 103.967 29.4429 103.34 29.4429C102.69 29.4429 102.432 29.9115 102.432 30.606C102.432 31.3422 102.681 31.6775 103.886 32.4413C106.204 33.9045 107.022 34.8355 107.022 36.988C107.022 39.5046 105.749 40.791 103.26 40.791C100.283 40.791 99.601 38.9347 99.601 37.0573V36.4729H102.263Z" fill="#654FEF"/>
<path d="M108.574 31.2526C108.574 28.636 108.574 28.0349 108.548 27.4413H111.066C111.126 27.8247 111.158 28.2117 111.163 28.5996C111.375 28.1726 111.708 27.8164 112.122 27.5746C112.535 27.3328 113.01 27.2159 113.49 27.2381C113.954 27.1952 114.419 27.313 114.806 27.5716C115.193 27.8301 115.478 28.2134 115.612 28.6566C115.862 28.209 116.232 27.8392 116.682 27.5887C117.131 27.3381 117.642 27.2168 118.157 27.2381C119.596 27.2381 120.773 27.9577 120.773 30.527V40.5882H118.136V31.0048C118.136 30.0882 117.893 29.5837 117.151 29.5837C116.223 29.5837 116.003 30.2966 116.003 31.594V40.5882H113.344V31.0675C113.344 29.8702 112.986 29.5837 112.352 29.5837C111.411 29.5837 111.211 30.3027 111.211 31.5571V40.5882H108.574V31.2526Z" fill="#654FEF"/>
<path d="M129.179 32.8379H125.421V38.1818H129.752L129.419 40.5883H122.784V23.6216H129.387V26.0505H125.421V30.4313H129.179V32.8379Z" fill="#654FEF"/>
<path d="M138.498 22.8818V36.9426C138.498 38.9455 138.498 39.8738 138.524 40.5881H136.006C135.958 40.2569 135.909 39.5457 135.909 39.3377C135.725 39.7941 135.4 40.1807 134.98 40.4419C134.56 40.7031 134.067 40.8254 133.573 40.7912C131.194 40.7912 130.734 38.9064 130.734 36.3595V31.2117C130.734 28.9259 131.613 27.238 133.775 27.238C134.658 27.238 135.499 27.496 135.861 28.1647V22.8818H138.498ZM133.374 31.3745V36.571C133.374 37.7845 133.664 38.4457 134.574 38.4457C135.652 38.4457 135.861 37.4879 135.861 35.9866V31.9414C135.861 30.5189 135.73 29.5835 134.606 29.5835C133.689 29.5835 133.374 30.2732 133.374 31.3745Z" fill="#654FEF"/>
<path d="M148.092 39.8552C148.092 42.7702 147.808 45.1982 144.036 45.1982C140.882 45.1982 140.351 43.2343 140.351 41.7764V41.7225H142.99V41.7795C142.974 41.9419 142.993 42.1058 143.046 42.2604C143.099 42.4149 143.184 42.5565 143.296 42.6757C143.409 42.7948 143.545 42.8888 143.697 42.9512C143.849 43.0137 144.013 43.0432 144.177 43.0378C145.271 43.0378 145.455 42.2051 145.455 40.5471V39.1115C145.256 39.5072 144.942 39.8341 144.552 40.0496C144.163 40.2651 143.718 40.3591 143.274 40.3194C140.859 40.3194 140.331 38.4569 140.331 36.1996V31.2339C140.331 29.446 141.009 27.2378 143.552 27.2378C144.945 27.2378 145.517 27.8819 145.738 28.6005C145.745 28.2113 145.786 27.8233 145.86 27.4409H148.143C148.118 28.2517 148.092 29.3398 148.092 30.7258V39.8552ZM142.971 31.3936V36.0087C142.971 37.3442 143.286 38.019 144.142 38.019C145.267 38.019 145.458 37.1407 145.458 35.5292V31.6779C145.458 30.5587 145.344 29.5833 144.279 29.5833C143.435 29.5833 142.971 30.1195 142.971 31.3936Z" fill="#654FEF"/>
<path d="M152.498 34.7105V36.6418C152.498 37.6575 152.734 38.5859 153.735 38.5859C154.785 38.5859 154.915 37.6531 154.915 36.7076V36.6449H157.485V36.7046C157.485 38.0844 157.188 40.791 153.797 40.791C150.423 40.791 149.928 38.7171 149.928 36.0596V31.7511C149.928 29.9532 150.5 27.2378 153.784 27.2378C156.612 27.2378 157.533 29.1305 157.533 31.7319V34.7105H152.498ZM155.009 32.662V31.3159C155.009 30.1002 154.726 29.4429 153.781 29.4429C152.931 29.4429 152.52 30.0414 152.52 31.319V32.662H155.009Z" fill="#654FEF"/>
<path d="M161.964 33.0015V40.5883H159.327V23.6216H162.979C165.581 23.6216 167.117 24.6558 167.117 27.7098V28.3561C167.117 30.9631 166.039 31.6265 165.377 31.8959C166.374 32.3601 166.944 33.073 166.944 35.3756C166.899 37.1147 166.951 38.8549 167.1 40.5883H164.554C164.327 39.5634 164.375 36.7765 164.375 35.544C164.375 33.4758 164.106 33.0015 162.576 33.0015H161.964ZM161.964 30.8407H162.569C163.964 30.8407 164.477 30.319 164.477 28.4741V27.8919C164.477 26.5805 164.204 25.782 162.709 25.782H161.964V30.8407Z" fill="#654FEF"/>
<path d="M176.46 36.7484C176.46 38.682 176.46 39.8981 176.485 40.5879H173.967C173.908 40.1749 173.875 39.7585 173.871 39.3414C173.403 40.4905 172.483 40.791 171.399 40.791C170.166 40.791 168.765 40.2048 168.765 37.3701V27.4409H171.402V36.6914C171.402 37.9001 171.753 38.4485 172.544 38.4485C173.404 38.4485 173.822 37.9124 173.822 36.2009V27.4409H176.46V36.7484Z" fill="#654FEF"/>
<path d="M178.673 31.4975C178.673 28.8265 178.673 28.0381 178.647 27.4414H181.165C181.224 27.8374 181.256 28.237 181.261 28.6374C181.479 28.1871 181.828 27.8125 182.264 27.5628C182.7 27.3131 183.201 27.2 183.703 27.2382C185.315 27.2382 186.424 28.2087 186.424 30.6929V40.5883H183.787V31.1869C183.787 30.0001 183.375 29.5838 182.648 29.5838C181.709 29.5838 181.309 30.0787 181.309 31.8639V40.5883H178.673V31.4975Z" fill="#654FEF"/>
<path d="M187.468 27.4411H188.875V24.2856H191.508V27.4411H193.17V29.7357H191.508V37.5094C191.508 38.1311 191.595 38.6277 192.394 38.6277C192.636 38.6327 192.877 38.607 193.112 38.5514V40.524C192.599 40.718 192.052 40.8068 191.504 40.785C189.848 40.785 188.875 40.2546 188.875 37.9779V29.7357H187.468V27.4411Z" fill="#654FEF"/>
<path d="M194.54 27.4412H197.176V40.5881H194.54V27.4412ZM194.562 22.8818H197.199V25.6779H194.562V22.8818Z" fill="#654FEF"/>
<path d="M199.402 31.2526C199.402 28.636 199.402 28.0349 199.376 27.4413H201.894C201.954 27.8246 201.986 28.2117 201.991 28.5995C202.203 28.1725 202.536 27.8163 202.95 27.5745C203.363 27.3326 203.839 27.2158 204.318 27.2381C204.782 27.1953 205.247 27.3131 205.634 27.5716C206.021 27.8302 206.306 28.2135 206.44 28.6566C206.69 28.209 207.06 27.8392 207.51 27.5886C207.959 27.3381 208.47 27.2167 208.985 27.2381C210.424 27.2381 211.602 27.9577 211.602 30.5269V40.5882H208.965V31.0047C208.965 30.0882 208.721 29.5836 207.979 29.5836C207.052 29.5836 206.831 30.2966 206.831 31.594V40.5882H204.172V31.0675C204.172 29.8701 203.814 29.5836 203.18 29.5836C202.24 29.5836 202.039 30.3027 202.039 31.5571V40.5882H199.402V31.2526Z" fill="#654FEF"/>
<path d="M216.018 34.7105V36.6418C216.018 37.6575 216.254 38.5859 217.256 38.5859C218.306 38.5859 218.436 37.6531 218.436 36.7076V36.6449H221.005V36.7046C221.005 38.0844 220.708 40.791 217.317 40.791C213.943 40.791 213.449 38.7171 213.449 36.0596V31.7511C213.449 29.9532 214.02 27.2378 217.304 27.2378C220.133 27.2378 221.053 29.1305 221.053 31.7319V34.7105H216.018ZM218.529 32.662V31.3159C218.529 30.1002 218.247 29.4429 217.301 29.4429C216.451 29.4429 216.041 30.0414 216.041 31.319V32.662H218.529Z" fill="#654FEF"/>
</g>
<defs>
<clipPath id="clip0_3_2955">
<rect width="221.05" height="64.66" fill="white"/>
</clipPath>
</defs>
</svg>