<svg xmlns:xlink="http://www.w3.org/1999/xlink" xmlns="http://www.w3.org/2000/svg" width="375" height="124" viewBox="0 0 375 124" fill="none" data-google-analytics-opt-out="">
<path d="M71.3421 84.2499C80.2027 80.9591 84.8283 74.6221 84.8283 63.7154C84.8283 52.8086 75.6372 43.1979 64.1531 43.1786C52.0339 43.1593 42.8921 52.7689 43.0381 63.7154C43.184 74.6618 48.4051 81.9441 56.7603 84.5772L41.9587 120.992C22.1483 115.863 2 92.4925 2 63.7154C2 29.6312 29.3866 2 63.7132 2C98.0398 2 125.866 29.6312 125.866 63.7154C125.866 92.94 105.909 115.985 85.6759 121.094L71.3421 84.2499Z" fill="#3DA638" stroke="#1C511C" stroke-width="4" stroke-linecap="round" stroke-linejoin="round"/>
<path d="M170.761 45.3734C170.761 48.9827 169.843 51.8001 168.007 53.8255C166.184 55.8379 163.626 56.8441 160.334 56.8441C157.177 56.8441 154.662 55.8119 152.79 53.7476C150.93 51.6833 150 48.8918 150 45.3734C150 41.777 150.912 38.9856 152.735 36.9991C154.571 34.9997 157.14 34 160.445 34C162.488 34 164.293 34.4609 165.859 35.3827C167.426 36.3045 168.631 37.6288 169.476 39.3556C170.332 41.0694 170.761 43.0753 170.761 45.3734ZM157.287 45.3734C157.287 47.2689 157.526 48.7166 158.003 49.7163C158.48 50.703 159.282 51.1964 160.408 51.1964C161.521 51.1964 162.305 50.703 162.757 49.7163C163.222 48.7166 163.455 47.2689 163.455 45.3734C163.455 43.4908 163.222 42.0691 162.757 41.1084C162.292 40.1476 161.497 39.6672 160.371 39.6672C159.27 39.6672 158.48 40.1476 158.003 41.1084C157.526 42.0561 157.287 43.4778 157.287 45.3734Z" fill="black"/>
<path d="M187.318 56.8441C186.266 56.8441 185.323 56.6623 184.491 56.2988C183.659 55.9223 182.833 55.2537 182.013 54.2929H181.683C181.903 55.8379 182.013 56.7987 182.013 57.1752V66.0363H174.836V34.3895H180.673L181.683 37.1939H182.013C183.347 35.0646 185.189 34 187.538 34C189.839 34 191.644 35.0127 192.953 37.0381C194.263 39.0635 194.917 41.8419 194.917 45.3734C194.917 48.9308 194.232 51.7352 192.861 53.7865C191.503 55.8249 189.655 56.8441 187.318 56.8441ZM184.913 39.9788C183.861 39.9788 183.121 40.3813 182.692 41.1863C182.276 41.9782 182.05 43.1597 182.013 44.7307V45.3344C182.013 47.23 182.252 48.5997 182.729 49.4436C183.206 50.2875 183.959 50.7095 184.987 50.7095C185.905 50.7095 186.571 50.294 186.988 49.4631C187.404 48.6192 187.612 47.23 187.612 45.2955C187.612 43.3999 187.404 42.0432 186.988 41.2252C186.571 40.3943 185.88 39.9788 184.913 39.9788Z" fill="black"/>
<path d="M209.032 56.8441C205.569 56.8441 202.877 55.8704 200.955 53.9229C199.046 51.9624 198.092 49.1775 198.092 45.5681C198.092 41.8419 198.979 38.9856 200.753 36.9991C202.528 34.9997 205.061 34 208.353 34C211.485 34 213.902 34.8699 215.603 36.6096C217.317 38.3364 218.173 40.8292 218.173 44.088V47.4767H205.342C205.391 48.7101 205.814 49.6773 206.609 50.3784C207.417 51.0795 208.512 51.4301 209.895 51.4301C211.155 51.4301 212.312 51.3067 213.364 51.0601C214.429 50.8004 215.579 50.3654 216.815 49.7552V55.2277C215.689 55.8379 214.526 56.2599 213.327 56.4936C212.128 56.7273 210.696 56.8441 209.032 56.8441ZM208.61 39.1803C207.765 39.1803 207.056 39.466 206.48 40.0372C205.918 40.5955 205.587 41.4784 205.489 42.6858H211.657C211.632 41.6212 211.345 40.7708 210.794 40.1346C210.256 39.4984 209.528 39.1803 208.61 39.1803Z" fill="black"/>
<path d="M235.392 56.4546V44.4191C235.392 42.952 235.19 41.8484 234.786 41.1084C234.395 40.3553 233.758 39.9788 232.877 39.9788C231.666 39.9788 230.791 40.4916 230.252 41.5173C229.714 42.543 229.445 44.3022 229.445 46.795V56.4546H222.268V34.3895H227.683L228.582 37.116H229.004C229.616 36.0773 230.46 35.2983 231.537 34.779C232.626 34.2597 233.875 34 235.282 34C237.583 34 239.369 34.7076 240.642 36.1228C241.927 37.5379 242.569 39.5309 242.569 42.1016V56.4546H235.392Z" fill="black"/>
<path d="M271.46 50.3215C271.46 52.4248 270.738 54.0412 269.294 55.1708C267.85 56.2874 265.782 56.8456 263.09 56.8456C260.386 56.8456 258.214 56.4107 256.574 55.5408V51.5874C258.96 52.7559 261.181 53.3401 263.237 53.3401C265.892 53.3401 267.22 52.4897 267.22 50.7889C267.22 50.2436 267.073 49.7892 266.78 49.4257C266.486 49.0621 266.003 48.6856 265.33 48.2961C264.657 47.9066 263.72 47.4652 262.521 46.9718C260.184 46.0111 258.599 45.0503 257.767 44.0895C256.947 43.1288 256.537 41.8824 256.537 40.3504C256.537 38.5067 257.235 37.0786 258.63 36.0659C260.037 35.0402 261.946 34.5273 264.357 34.5273C266.743 34.5273 269.001 35.0402 271.13 36.0659L269.735 39.5129C267.545 38.5522 265.703 38.0718 264.21 38.0718C261.934 38.0718 260.796 38.7599 260.796 40.1361C260.796 40.8113 261.089 41.3825 261.677 41.8499C262.276 42.3173 263.574 42.96 265.568 43.7779C267.245 44.4661 268.462 45.0957 269.221 45.667C269.98 46.2383 270.543 46.9004 270.91 47.6535C271.277 48.3935 271.46 49.2829 271.46 50.3215Z" fill="black"/>
<path d="M294.111 45.6475C294.111 49.166 293.261 51.912 291.56 53.8854C289.859 55.8589 287.491 56.8456 284.456 56.8456C282.559 56.8456 280.883 56.3912 279.426 55.4824C277.97 54.5736 276.851 53.2687 276.067 51.5679C275.284 49.8671 274.893 47.8936 274.893 45.6475C274.893 42.155 275.737 39.4285 277.426 37.4681C279.114 35.5076 281.495 34.5273 284.566 34.5273C287.503 34.5273 289.828 35.5335 291.541 37.546C293.255 39.5454 294.111 42.2459 294.111 45.6475ZM279.335 45.6475C279.335 50.6201 281.066 53.1064 284.529 53.1064C287.956 53.1064 289.669 50.6201 289.669 45.6475C289.669 40.7269 287.944 38.2665 284.493 38.2665C282.682 38.2665 281.366 38.9027 280.546 40.1751C279.739 41.4474 279.335 43.2716 279.335 45.6475Z" fill="black"/>
<path d="M313.404 56.4553L312.798 53.6314H312.577C311.978 54.6312 311.121 55.4166 310.008 55.9879C308.906 56.5592 307.646 56.8448 306.226 56.8448C303.767 56.8448 301.931 56.1956 300.72 54.8973C299.508 53.599 298.902 51.632 298.902 48.9964V34.916H303.253V48.1979C303.253 49.8468 303.571 51.0867 304.207 51.9176C304.844 52.7356 305.841 53.1446 307.199 53.1446C309.01 53.1446 310.338 52.5733 311.182 51.4308C312.039 50.2753 312.467 48.3472 312.467 45.6467V34.916H316.799V56.4553H313.404Z" fill="black"/>
<path d="M333.247 34.5273C334.116 34.5273 334.832 34.5923 335.395 34.7221L334.972 38.9871C334.36 38.8313 333.724 38.7534 333.063 38.7534C331.338 38.7534 329.937 39.3506 328.86 40.5451C327.795 41.7396 327.263 43.2911 327.263 45.1996V56.4561H322.949V34.9168H326.327L326.896 38.7145H327.116C327.789 37.4291 328.664 36.4099 329.741 35.6569C330.83 34.9039 331.999 34.5273 333.247 34.5273Z" fill="black"/>
<path d="M347.363 56.8456C344.292 56.8456 341.954 55.8978 340.351 54.0023C338.76 52.0937 337.965 49.3608 337.965 45.8033C337.965 42.181 338.797 39.3961 340.461 37.4486C342.138 35.5011 344.555 34.5273 347.712 34.5273C349.853 34.5273 351.781 34.9493 353.494 35.7932L352.191 39.474C350.367 38.7209 348.862 38.3444 347.675 38.3444C344.163 38.3444 342.407 40.8177 342.407 45.7644C342.407 48.1793 342.841 49.9969 343.71 51.2174C344.591 52.4248 345.876 53.0285 347.565 53.0285C349.486 53.0285 351.303 52.5222 353.017 51.5095V55.5019C352.246 55.9822 351.42 56.3263 350.539 56.534C349.67 56.7418 348.611 56.8456 347.363 56.8456Z" fill="black"/>
<path d="M366.693 56.8456C363.535 56.8456 361.063 55.8719 359.277 53.9244C357.502 51.9639 356.615 49.2699 356.615 45.8423C356.615 42.3238 357.441 39.5584 359.093 37.546C360.745 35.5335 363.015 34.5273 365.903 34.5273C368.583 34.5273 370.7 35.3907 372.254 37.1175C373.809 38.8443 374.586 41.2202 374.586 44.2453V46.7187H361.057C361.119 48.809 361.651 50.4189 362.654 51.5484C363.658 52.665 365.071 53.2233 366.895 53.2233C368.094 53.2233 369.207 53.1064 370.235 52.8727C371.275 52.6261 372.389 52.2236 373.576 51.6653V55.385C372.524 55.9173 371.459 56.2938 370.382 56.5146C369.305 56.7353 368.075 56.8456 366.693 56.8456ZM365.903 37.9939C364.533 37.9939 363.431 38.4548 362.599 39.3766C361.779 40.2984 361.29 41.6422 361.131 43.4079H370.345C370.321 41.6292 369.917 40.2854 369.134 39.3766C368.351 38.4548 367.274 37.9939 365.903 37.9939Z" fill="black"/>
<path d="M190.328 96.449H186.015V74.9097H190.328V96.449ZM185.758 69.2036C185.758 68.3856 185.966 67.7559 186.382 67.3145C186.81 66.8731 187.416 66.6523 188.199 66.6523C188.958 66.6523 189.545 66.8731 189.961 67.3145C190.39 67.7559 190.604 68.3856 190.604 69.2036C190.604 69.9826 190.39 70.5993 189.961 71.0537C189.545 71.4951 188.958 71.7158 188.199 71.7158C187.416 71.7158 186.81 71.4951 186.382 71.0537C185.966 70.5993 185.758 69.9826 185.758 69.2036Z" fill="black"/>
<path d="M214.374 96.4503H210.042V83.2073C210.042 81.5454 209.724 80.3055 209.087 79.4876C208.463 78.6696 207.466 78.2607 206.095 78.2607C204.272 78.2607 202.938 78.8319 202.094 79.9745C201.249 81.117 200.827 83.032 200.827 85.7196V96.4503H196.514V74.911H199.891L200.497 77.7349H200.717C201.329 76.7092 202.198 75.9172 203.324 75.3589C204.45 74.8006 205.698 74.5215 207.068 74.5215C211.939 74.5215 214.374 77.1506 214.374 82.4088V96.4503Z" fill="black"/>
<path d="M224.69 96.449H220.376V74.9097H224.69V96.449ZM220.119 69.2036C220.119 68.3856 220.327 67.7559 220.743 67.3145C221.172 66.8731 221.777 66.6523 222.56 66.6523C223.319 66.6523 223.907 66.8731 224.323 67.3145C224.751 67.7559 224.965 68.3856 224.965 69.2036C224.965 69.9826 224.751 70.5993 224.323 71.0537C223.907 71.4951 223.319 71.7158 222.56 71.7158C221.777 71.7158 221.172 71.4951 220.743 71.0537C220.327 70.5993 220.119 69.9826 220.119 69.2036Z" fill="black"/>
<path d="M238.438 93.1385C239.491 93.1385 240.543 92.9633 241.596 92.6127V96.0598C241.118 96.2805 240.5 96.4623 239.742 96.6051C238.995 96.7609 238.218 96.8388 237.41 96.8388C233.323 96.8388 231.28 94.5537 231.28 89.9836V78.3765H228.508V76.3511L231.481 74.6763L232.95 70.1191H235.612V74.91H241.394V78.3765H235.612V89.9057C235.612 91.0093 235.869 91.8272 236.382 92.3595C236.909 92.8789 237.594 93.1385 238.438 93.1385Z" fill="black"/>
<path d="M249.948 96.449H245.634V74.9097H249.948V96.449ZM245.377 69.2036C245.377 68.3856 245.585 67.7559 246.001 67.3145C246.429 66.8731 247.035 66.6523 247.818 66.6523C248.577 66.6523 249.164 66.8731 249.58 67.3145C250.009 67.7559 250.223 68.3856 250.223 69.2036C250.223 69.9826 250.009 70.5993 249.58 71.0537C249.164 71.4951 248.577 71.7158 247.818 71.7158C247.035 71.7158 246.429 71.4951 246.001 71.0537C245.585 70.5993 245.377 69.9826 245.377 69.2036Z" fill="black"/>
<path d="M268.837 96.4503L267.974 93.4511H267.828C266.849 94.7624 265.864 95.6583 264.872 96.1387C263.881 96.6061 262.608 96.8398 261.054 96.8398C259.06 96.8398 257.499 96.2685 256.374 95.126C255.26 93.9834 254.703 92.367 254.703 90.2767C254.703 88.0566 255.48 86.3817 257.034 85.2522C258.588 84.1226 260.956 83.5059 264.138 83.4021L267.644 83.2852V82.1362C267.644 80.76 267.338 79.7343 266.726 79.0591C266.127 78.371 265.19 78.027 263.918 78.027C262.878 78.027 261.88 78.1893 260.926 78.5138C259.971 78.8384 259.053 79.2214 258.172 79.6629L256.777 76.3911C257.879 75.7809 259.084 75.32 260.393 75.0084C261.703 74.6838 262.939 74.5215 264.101 74.5215C266.683 74.5215 268.629 75.1187 269.939 76.3132C271.26 77.5076 271.921 79.3837 271.921 81.9414V96.4503H268.837ZM262.413 93.3343C263.979 93.3343 265.233 92.8734 266.176 91.9516C267.13 91.0168 267.607 89.7119 267.607 88.0371V86.1675L265.001 86.2844C262.969 86.3622 261.489 86.7258 260.559 87.3749C259.641 88.0111 259.182 88.9914 259.182 90.3157C259.182 91.2764 259.451 92.023 259.99 92.5553C260.528 93.0746 261.336 93.3343 262.413 93.3343Z" fill="black"/>
<path d="M285.503 93.1385C286.555 93.1385 287.608 92.9633 288.66 92.6127V96.0598C288.183 96.2805 287.565 96.4623 286.806 96.6051C286.06 96.7609 285.283 96.8388 284.475 96.8388C280.388 96.8388 278.344 94.5537 278.344 89.9836V78.3765H275.572V76.3511L278.546 74.6763L280.014 70.1191H282.676V74.91H288.458V78.3765H282.676V89.9057C282.676 91.0093 282.933 91.8272 283.447 92.3595C283.973 92.8789 284.658 93.1385 285.503 93.1385Z" fill="black"/>
<path d="M297.012 96.449H292.698V74.9097H297.012V96.449ZM292.441 69.2036C292.441 68.3856 292.649 67.7559 293.066 67.3145C293.494 66.8731 294.1 66.6523 294.883 66.6523C295.641 66.6523 296.229 66.8731 296.645 67.3145C297.073 67.7559 297.287 68.3856 297.287 69.2036C297.287 69.9826 297.073 70.5993 296.645 71.0537C296.229 71.4951 295.641 71.7158 294.883 71.7158C294.1 71.7158 293.494 71.4951 293.066 71.0537C292.649 70.5993 292.441 69.9826 292.441 69.2036Z" fill="black"/>
<path d="M307.825 96.4494L300.115 74.9102H304.667L308.798 87.4325C309.507 89.5358 309.936 91.2367 310.082 92.535H310.229C310.339 91.6002 310.768 89.8994 311.514 87.4325L315.644 74.9102H320.233L312.487 96.4494H307.825Z" fill="black"/>
<path d="M332.183 96.8398C329.026 96.8398 326.554 95.866 324.767 93.9185C322.993 91.958 322.105 89.264 322.105 85.8364C322.105 82.318 322.931 79.5525 324.584 77.5401C326.236 75.5277 328.506 74.5215 331.394 74.5215C334.074 74.5215 336.191 75.3849 337.745 77.1117C339.299 78.8384 340.076 81.2144 340.076 84.2395V86.7128H326.548C326.609 88.8031 327.141 90.413 328.145 91.5426C329.148 92.6592 330.561 93.2174 332.385 93.2174C333.584 93.2174 334.698 93.1006 335.726 92.8669C336.766 92.6202 337.879 92.2177 339.066 91.6594V95.3792C338.014 95.9115 336.949 96.288 335.872 96.5087C334.796 96.7294 333.566 96.8398 332.183 96.8398ZM331.394 77.988C330.023 77.988 328.922 78.4489 328.089 79.3707C327.27 80.2926 326.78 81.6363 326.621 83.4021H335.836C335.811 81.6234 335.407 80.2796 334.624 79.3707C333.841 78.4489 332.764 77.988 331.394 77.988Z" fill="black"/>
<path d="M348.635 71.8684H349.551C350.003 71.8684 350.364 71.7526 350.636 71.5209C350.912 71.2836 351.051 70.9842 351.051 70.6225C351.051 70.1988 350.929 69.8965 350.686 69.7157C350.444 69.5293 350.059 69.436 349.534 69.436H348.635V71.8684ZM352.314 70.5886C352.314 71.0407 352.192 71.4418 351.949 71.7921C351.712 72.1368 351.376 72.3939 350.941 72.5634L352.958 75.911H351.534L349.78 72.9108H348.635V75.911H347.381V68.3597H349.593C350.531 68.3597 351.218 68.5433 351.653 68.9106C352.093 69.2778 352.314 69.8372 352.314 70.5886ZM343.355 72.1311C343.355 71.0011 343.638 69.9417 344.203 68.9529C344.768 67.9642 345.545 67.1845 346.534 66.6138C347.522 66.0431 348.587 65.7578 349.729 65.7578C350.859 65.7578 351.918 66.0403 352.907 66.6053C353.896 67.1703 354.675 67.9472 355.246 68.936C355.817 69.9248 356.102 70.9898 356.102 72.1311C356.102 73.2442 355.828 74.2895 355.28 75.2669C354.732 76.2444 353.964 77.0269 352.975 77.6145C351.986 78.2022 350.904 78.496 349.729 78.496C348.559 78.496 347.48 78.205 346.491 77.623C345.503 77.0354 344.731 76.2529 344.178 75.2754C343.629 74.2979 343.355 73.2498 343.355 72.1311ZM344.245 72.1311C344.245 73.1086 344.491 74.0239 344.983 74.8771C345.474 75.7246 346.144 76.3941 346.991 76.8857C347.844 77.3716 348.757 77.6145 349.729 77.6145C350.712 77.6145 351.624 77.3688 352.466 76.8772C353.308 76.3856 353.975 75.7218 354.466 74.8855C354.964 74.0437 355.212 73.1255 355.212 72.1311C355.212 71.148 354.966 70.2355 354.475 69.3937C353.983 68.5518 353.317 67.8851 352.475 67.3935C351.639 66.8963 350.723 66.6477 349.729 66.6477C348.746 66.6477 347.833 66.8935 346.991 67.385C346.149 67.8766 345.48 68.5433 344.983 69.3852C344.491 70.2214 344.245 71.1367 344.245 72.1311Z" fill="black"/>
</svg>